<svg width="101" height="102" viewBox="0 0 101 102" fill="none" xmlns="http://www.w3.org/2000/svg">
<path d="M50.5 101.74C78.3904 101.74 101 78.9646 101 50.8699C101 22.7752 78.3904 0 50.5 0C22.6096 0 0 22.7752 0 50.8699C0 78.9646 22.6096 101.74 50.5 101.74Z" fill="#5E9DA0"/>
<path d="M57.233 64.9777H43.7663L38.3796 10.1738H62.6196L57.233 64.9777Z" fill="white"/>
<path d="M50.4997 91.5661C56.2265 91.5661 60.869 86.9503 60.869 81.2564C60.869 75.5626 56.2265 70.9468 50.4997 70.9468C44.7729 70.9468 40.1304 75.5626 40.1304 81.2564C40.1304 86.9503 44.7729 91.5661 50.4997 91.5661Z" fill="white"/>
</svg>
