<svg width="54" height="49" viewBox="0 0 54 49" fill="none" xmlns="http://www.w3.org/2000/svg">
<path d="M3.60835 37.5843C6.41593 39.6563 9.74628 40.6688 12.8245 40.4415C18.4998 40.1245 27.3047 36.5014 35.9786 30.5136C45.9546 23.6289 52.7339 15.7033 53.422 10.7256C53.9758 7.4551 52.9922 3.6937 50.4048 0.491944C48.1395 -2.3103 30.275 10.0204 32.5395 12.8218C34.2776 14.973 36.4828 16.5509 38.818 17.4906C36.4536 19.6685 33.7186 21.861 30.6828 23.9588C27.6302 26.0648 24.5652 27.8715 21.6232 29.3531C21.3083 27.0183 20.2972 24.6188 18.5609 22.4708C16.2946 19.6693 -1.56894 32.0008 0.695516 34.8023C1.2059 35.4339 1.76052 36.0113 2.34256 36.5435C0.183359 37.8957 0.434572 39.4767 0.683132 40.1609C1.51461 42.4367 5.27043 43.9571 8.41148 43.2899C10.6857 42.8047 13.0784 42.9446 14.8475 43.6118C14.2982 44.5378 14.0196 45.4395 14.0187 45.949C14.0187 47.399 14.8334 48.0444 15.319 48.2984C15.5932 48.4439 15.8957 48.5369 16.2088 48.5782C16.8165 48.6599 17.4622 48.5482 18.0089 48.2498C18.7245 47.8568 19.142 47.1912 19.1287 46.4706C19.1031 45.1775 18.445 44.0283 17.2234 43.1467C17.2155 43.1427 17.2093 43.1362 17.2013 43.1314C17.625 42.7125 18.1345 42.3566 18.7307 42.1625C19.4675 41.9199 20.138 41.9636 20.6811 42.1091C19.9903 43.3942 19.709 44.8653 20.2035 46.0517C20.6413 47.1022 21.8098 47.6732 23.0464 47.4354C24.2884 47.1985 25.1225 46.2442 25.073 45.1136C25.0172 43.7945 24.2353 42.4682 23.0058 41.5673C23.3914 41.1581 23.8178 40.8378 24.2388 40.6745C25.0809 40.3477 25.8726 40.3534 26.6554 40.689C26.8996 40.795 27.1304 40.926 27.3454 41.0748C27.1092 41.3158 26.9066 41.5722 26.7368 41.8415C26.1158 42.8265 25.9894 43.9401 26.3812 44.9793C26.9155 46.3914 28.2096 46.7157 29.1835 46.4156C30.4183 46.0388 31.3613 44.6615 30.8022 43.0125C30.6421 42.5418 30.2821 41.8722 29.7469 41.2131L29.6337 41.1007C30.1662 40.7505 30.9216 40.4052 31.8575 40.3946C31.7496 41.4428 31.8805 42.372 32.0981 42.841C32.7199 44.1746 33.7451 44.4755 34.3015 44.537C34.6155 44.5717 34.934 44.5491 35.2409 44.4747C35.8336 44.3307 36.3802 43.9975 36.7553 43.5269C37.2444 42.9082 37.3444 42.1472 37.0215 41.488C36.4439 40.3089 35.3444 39.4872 33.8424 39.1144C33.8336 39.1128 33.8247 39.1096 33.8159 39.108C34.0255 38.571 34.3422 38.0598 34.8057 37.6676C35.3798 37.1808 36.0149 36.9802 36.5775 36.9187C36.4926 38.3486 36.8658 39.8027 37.8291 40.7157C38.6836 41.5261 40.0034 41.632 41.0383 40.9697C42.0794 40.3065 42.4368 39.1298 41.906 38.1076C41.2877 36.9131 40.0007 35.9741 38.4828 35.5867C38.6615 35.0716 38.9171 34.6244 39.2338 34.3227C39.8698 33.721 40.5987 33.4412 41.4638 33.4695C41.7344 33.4792 42.0024 33.5172 42.2634 33.5754C42.1502 33.8819 42.0732 34.1917 42.0325 34.4998C41.8839 35.6288 42.2457 36.6987 43.0515 37.5148C44.1484 38.6227 45.4779 38.4569 46.2448 37.8318C47.2195 37.0416 47.4955 35.4371 46.2731 34.1197C45.9246 33.7437 45.3063 33.2584 44.5314 32.8443C45.0683 32.182 45.8343 31.5391 46.7835 30.9657C47.1585 30.7392 47.2602 30.2742 47.0117 29.9281C46.7631 29.5803 46.2563 29.4833 45.8839 29.7097C44.642 30.461 43.6681 31.3142 43.0046 32.2184C42.5261 32.0793 42.021 31.9887 41.5089 31.9717C40.1962 31.9272 39.0038 32.3785 38.0618 33.2754C37.5133 33.7954 37.0967 34.5508 36.8446 35.3991C35.6628 35.4315 34.558 35.8318 33.6991 36.5605C32.9446 37.1985 32.4625 38.0348 32.1759 38.8977C30.5492 38.854 29.2021 39.5794 28.5245 40.0275C28.1654 39.7557 27.7708 39.5099 27.341 39.3263C26.1521 38.8144 24.8615 38.8023 23.6099 39.2883C22.8828 39.5697 22.1752 40.1156 21.579 40.8055C20.4786 40.4116 19.2897 40.3833 18.1876 40.7464C17.2199 41.0627 16.4176 41.6587 15.7834 42.3493C13.6622 41.4541 10.8051 41.239 8.04705 41.8253C5.52784 42.3607 2.74061 41.0942 2.22314 39.6797C1.8817 38.7473 2.7636 38.0348 3.60835 37.5843ZM43.6459 34.6939C43.6689 34.5192 43.7114 34.3429 43.7707 34.1666C44.3651 34.4925 44.8242 34.8589 45.0382 35.0902C45.699 35.8035 45.4664 36.4577 45.1647 36.7036C44.8313 36.9721 44.4836 36.7465 44.2492 36.5095C43.7618 36.0178 43.5548 35.3902 43.6459 34.6939ZM40.4359 38.7456C40.7243 39.302 40.2086 39.6684 40.1033 39.7363C39.9989 39.8043 39.4523 40.1156 38.9905 39.6781C38.3846 39.1039 38.1502 38.0898 38.1997 37.0716C39.1949 37.3627 40.0467 37.9903 40.4359 38.7456ZM33.478 40.5742C34.4767 40.833 35.1693 41.3449 35.5364 42.0962C35.6407 42.3073 35.539 42.5054 35.4364 42.6356C35.2135 42.9155 34.8199 43.0845 34.4802 43.0481C34.0273 42.9979 33.7469 42.592 33.5912 42.258C33.4904 42.0412 33.401 41.3708 33.478 40.5742ZM28.1388 42.596C28.2352 42.444 28.3493 42.2976 28.4803 42.1552C28.8872 42.6688 29.1525 43.171 29.2498 43.4589C29.5523 44.3518 29.0561 44.871 28.6731 44.989C28.252 45.116 28.0291 44.7836 27.915 44.482C27.678 43.8568 27.7558 43.2042 28.1388 42.596ZM22.1106 42.8297C22.9005 43.4549 23.4144 44.3372 23.4489 45.1718C23.4755 45.7881 22.8439 45.9385 22.7183 45.9636C22.5927 45.9886 21.9567 46.0792 21.7205 45.5099C21.4091 44.7658 21.6276 43.7493 22.1106 42.8297ZM16.2628 44.359C17.0704 44.9551 17.4879 45.6748 17.5029 46.4981C17.5091 46.7286 17.3304 46.875 17.1792 46.9575C16.8554 47.1354 16.4211 47.1483 16.1239 46.9939C15.7285 46.786 15.6445 46.3113 15.6454 45.949C15.6445 45.7128 15.8506 45.0634 16.2628 44.359Z" fill="white"/>
</svg>
