<svg width="47" height="42" viewBox="0 0 47 42" fill="none" xmlns="http://www.w3.org/2000/svg">
<path d="M42.8672 0.00797434L5.68645 2.54261C4.99399 2.59147 2.82025 3.88443 2.52259 6.68902L0.0362974 30.1816C-0.092952 31.4081 0.00574755 34.2704 2.35025 34.7174L38.5315 41.5907C38.7602 41.6348 38.9928 41.6564 39.2224 41.6564C40.0973 41.6564 43.2495 40.9362 43.5769 37.816L46.9632 5.82706C47.2813 2.83741 45.5047 -0.175474 42.8672 0.00797434ZM5.78515 3.97575L42.962 1.44031C43.4461 1.40667 43.8996 1.52363 44.2944 1.77677L29.3399 15.6307C29.4041 14.9322 29.3806 14.2184 29.2451 13.4902C27.9173 6.33975 21.1055 9.63461 20.1663 13.0304C19.7856 9.43354 14.3971 6.96139 12.0698 13.2964C11.9586 13.5976 11.8763 13.8996 11.8058 14.2016L5.08799 4.32262C5.32221 4.11434 5.56504 3.99097 5.78515 3.97575ZM1.45256 30.333L3.93885 6.84043C3.98428 6.41585 4.08846 5.99528 4.24121 5.61076L11.6053 16.2764C11.6476 17.5237 11.9586 18.7502 12.4317 19.9205L1.46901 31.4401C1.41966 31.0853 1.41261 30.7088 1.45256 30.333ZM38.7954 40.1792L2.61424 33.3051C2.41527 33.2674 2.21787 33.1296 2.04162 32.9133L13.0772 21.316C14.9924 24.9826 18.1265 27.8553 18.4712 28.557C18.9717 28.0636 23.6772 25.3695 26.7424 21.4682L28.5268 23.9027L40.2979 39.9517C39.8224 40.196 39.3054 40.2761 38.7954 40.1792ZM45.5477 4.95708L42.1614 36.9452C42.0792 37.7239 41.8034 38.4448 41.3812 39.0136L27.6166 20.2458C27.9831 19.6786 28.3074 19.0914 28.5746 18.485L45.2266 2.86384C45.5133 3.46305 45.6284 4.19204 45.5477 4.95708Z" fill="white"/>
</svg>
