<svg width="61" height="35" viewBox="0 0 61 35" fill="none" xmlns="http://www.w3.org/2000/svg">
<path d="M54.1329 0.583496L39.2379 4.91434L25.4333 1.56143L6.55764 2.25995L0.497559 32.017L20.013 31.0855L41.6735 34.1126L60.193 30.3406L54.1329 0.583496ZM52.4843 2.32086L58.038 29.5906L42.0555 32.8457L41.967 31.7985L56.066 28.8088L51.2486 3.88946L39.8617 6.92273L39.7841 6.01409L40.1532 5.90736L52.4843 2.32086ZM40.9064 19.2754C41.1273 19.0116 41.3442 18.6411 41.4476 18.1214C41.4476 18.1214 42.544 18.1516 43.8932 19.8029C43.8932 19.8029 44.4821 19.77 44.1886 18.692C44.1886 18.692 46.2949 18.2153 45.1587 16.1192C45.1587 16.1192 46.9257 17.4861 46.3387 15.709C46.3387 15.709 48.2768 14.3746 45.9616 13.4872C45.9616 13.4872 46.0412 12.5031 47.4331 12.6294C47.4331 12.6294 48.824 10.5975 48.1534 13.0099C48.1534 13.0099 48.1932 13.4872 49.0777 14.0253C49.0777 14.0253 49.4588 13.2323 48.7832 12.3773C48.7832 12.3773 50.1751 10.9144 50.0478 9.64641C50.0478 9.64641 45.5388 10.5858 40.5214 10.3053C40.5214 10.3053 40.7661 9.78108 40.0806 9.48658L39.9403 7.82969L40.0597 7.79784L49.993 5.15239L54.4582 28.2545L41.8934 30.9195L40.9064 19.2754ZM39.0777 9.44355C38.5594 9.85876 37.1207 11.1357 37.9952 11.9001C37.9952 11.9001 37.5714 13.5559 36.9804 11.1407C36.9804 11.1407 36.0143 12.5662 34.707 12.2483C34.707 12.2483 34.3479 13.6911 33.525 12.7244C33.525 12.7244 34.1986 12.8836 34.3469 12.4394C34.3469 12.4394 32.4475 11.2966 31.3123 13.0245C31.3123 13.0245 30.3851 13.2318 30.7442 14.0421C30.7442 14.0421 31.3949 13.3737 31.7332 14.3913C31.7332 14.3913 32.0924 14.2326 32.2426 12.93C32.2426 12.93 33.144 12.6774 32.4475 13.7068C32.4475 13.7068 34.513 13.7252 31.3123 14.754C31.3123 14.754 31.1352 14.7372 30.996 14.3427C30.996 14.3427 30.5114 15.2927 29.5185 15.6297C29.5185 15.6297 29.7513 16.0091 29.0151 16.1835C29.0151 16.1835 28.6161 16.7713 29.5653 16.7713C29.5653 16.7713 30.3861 15.3586 31.9461 16.4701C31.9461 16.4701 32.2436 16.407 31.779 15.851C31.779 15.851 32.5988 16.0275 32.9162 16.7557C32.9162 16.7557 33.4226 16.7065 33.5032 16.0734C33.5032 16.0734 34.1389 15.2642 35.1726 16.217C35.1726 16.217 33.8006 15.994 33.4445 16.7713C33.4445 16.7713 34.0932 16.6121 34.4971 16.835C34.4971 16.835 34.5379 17.1977 34.124 17.338C34.3031 17.5269 34.4971 17.7079 34.7677 17.861C34.9448 17.9594 34.9388 18.0818 34.8443 18.1756C35.5746 18.8775 36.9237 19.8119 37.8679 18.3204C37.8679 18.3204 36.6043 18.7233 36.1815 17.6118C36.1815 17.6118 38.7315 17.794 39.9075 19.2307L40.8974 30.9368L21.0666 27.813L21.3641 26.1606C21.776 26.7535 22.2585 26.9944 22.2585 26.9944C21.6984 24.4154 25.0115 22.763 25.0115 22.763C25.6552 20.9926 24.0186 20.198 22.5013 19.8404L23.2803 15.5106C23.5927 15.2921 23.7768 15.1463 23.7768 15.1463C23.6644 14.9289 23.5549 14.7384 23.4505 14.564L24.2056 10.3628C24.8404 10.797 24.913 11.1915 24.7349 11.5503C23.9181 13.2005 24.9687 13.7062 24.9687 13.7062C25.6065 12.3125 27.7953 12.0901 27.7953 12.0901C27.6699 10.787 29.0171 9.30553 29.0171 9.30553C27.5515 7.89116 25.4552 8.84506 24.3568 9.52011L24.4424 9.04568C24.6672 8.88306 24.902 8.70592 25.1558 8.50362C25.1558 8.50362 24.9458 8.42259 24.5648 8.36336L25.2334 4.64443L38.8479 7.81404L38.9434 7.83639L39.0777 9.44355ZM23.5748 8.30636C22.8963 8.32424 22.0277 8.45557 21.0059 8.85233C21.0059 8.85233 20.5204 11.3569 23.3082 9.78723L22.9968 11.5201C22.6326 10.8361 21.769 10.5981 21.769 10.5981C20.9233 10.8853 21.0079 11.2653 21.0079 11.2653C21.775 11.3301 22.2436 11.8487 22.5192 12.3349C22.364 12.4684 22.0984 12.621 21.6397 12.6461C21.6397 12.6461 22.174 13.0971 22.6913 13.2234L22.6346 13.5341C21.4308 12.521 20.9094 14.5567 20.9094 14.5567C17.9336 12.6942 21.6994 11.7621 21.6994 11.7621C19.3941 11.215 18.3266 9.64697 18.3266 9.64697C18.2142 10.621 17.5386 10.578 17.5386 10.578C12.2556 8.84338 11.3044 11.6369 11.3044 11.6369C12.1431 13.1167 10.3453 13.286 10.3453 13.286C12.0864 13.4548 12.9848 12.1007 12.9848 12.1007C16.5845 13.1167 14.6732 16.7562 14.6732 16.7562C16.0771 17.2201 16.4711 18.7451 16.4711 18.7451C17.4491 18.9116 18.451 19.248 19.1534 19.5146C19.2897 19.4458 19.43 19.3805 19.5772 19.3195C17.9356 18.668 17.9326 17.6129 17.9326 17.6129C19.422 17.6129 21.0059 16.892 22.1491 16.2293L21.5322 19.6621C21.1999 19.6157 20.9054 19.5867 20.6895 19.571C20.4279 19.642 20.1791 19.7292 19.9473 19.8359C20.02 19.8672 20.0687 19.889 20.0687 19.889C18.4132 21.6755 20.6517 22.3919 21.0228 22.4953L20.0727 27.7761L6.90387 28.3545L11.2965 4.9881L24.2484 4.56005L23.5748 8.30636ZM20.9144 28.6602L40.9711 31.8197L41.0606 32.8754L20.6686 30.0254L20.9144 28.6602ZM38.7882 6.02303L38.8638 6.91155L25.3906 3.77491L25.5637 2.81039L38.4479 5.94033L38.7882 6.02303ZM8.34651 3.31388L24.5807 2.71315L24.4006 3.71567L9.94536 4.1929L5.2324 29.2693L19.9225 28.6227L19.6777 29.9796L2.75106 30.7882L8.34651 3.31388Z" fill="white"/>
<path d="M30.407 19.928C30.407 19.928 32.5182 20.1499 31.6735 22.4349C31.6735 22.4349 32.0108 24.2158 33.8624 24.0532C33.8624 24.0532 34.3678 21.4832 36.7287 19.5145C36.7287 19.5145 35.7716 20.0498 34.6862 18.2745C34.522 18.3415 34.2991 18.3572 34.1131 18.2532C33.6455 17.9912 33.3629 17.6609 33.0585 17.329C33.0087 17.2742 33.0008 17.2233 33.0077 17.1742C31.4716 16.8523 28.3604 16.5293 27.9197 19.0702C27.9207 19.0702 28.5087 20.8193 30.407 19.928Z" fill="white"/>
<path d="M29.4397 13.9922C29.585 15.1366 29.8576 15.4842 30.2147 15.0087C30.5739 14.537 29.4397 13.9922 29.4397 13.9922Z" fill="white"/>
<path d="M28.8022 15.0726C28.8022 15.0726 29.3962 15.0234 29.2261 14.6038C29.2261 14.6038 28.8022 14.6283 28.8022 15.0726Z" fill="white"/>
<path d="M28.5735 12.772C28.5735 12.772 27.0762 12.772 27.6055 13.2017C28.1318 13.6303 28.5735 12.772 28.5735 12.772Z" fill="white"/>
<path d="M36.0558 23.1977C36.0558 23.1977 36.5134 22.6735 36.4985 21.8655C36.4995 21.8655 35.0429 22.7998 36.0558 23.1977Z" fill="white"/>
<path d="M45.4938 19.9131C45.4938 19.9131 44.4392 20.4535 44.6322 20.9458C44.8223 21.4398 45.7475 20.8485 45.4938 19.9131Z" fill="white"/>
<path d="M49.7113 21.6605C50.174 21.2056 47.1772 20.6423 47.1772 20.6423C47.7692 21.1352 49.2915 22.0662 49.7113 21.6605Z" fill="white"/>
<path d="M46.3598 21.7576C47.0633 21.0815 44.2307 21.405 44.2307 21.405C44.2307 21.405 46.0862 22.0247 46.3598 21.7576Z" fill="white"/>
<path d="M47.4725 21.8982C47.4725 21.8982 46.9053 22.6107 44.7981 22.9108C44.7981 22.9108 45.2428 23.4836 44.7981 24.5638C44.7981 24.5638 46.9252 23.0393 48.151 25.2444C48.151 25.2444 49.2026 25.5652 49.9399 23.5685C49.9399 23.5685 49.0554 22.8493 48.7609 21.8267C48.7619 21.8261 48.4694 23.1365 47.4725 21.8982Z" fill="white"/>
<path d="M47.8882 15.3977C48.0226 15.3346 48.127 15.3117 48.127 15.3117C47.0953 14.3746 47.4724 15.7252 47.4724 15.7252C47.539 15.6364 47.6176 15.5682 47.6982 15.5106C47.7529 15.9107 47.5818 16.507 46.4695 17.0736C46.4685 17.0736 48.8543 16.5685 47.8882 15.3977Z" fill="white"/>
<path d="M29.6805 8.38197C30.2008 7.69686 28.5652 6.91675 28.5652 6.91675C28.7751 8.56358 29.1641 9.06652 29.6805 8.38197Z" fill="white"/>
<path d="M27.647 8.47189C27.647 8.47189 28.4937 8.40148 28.2539 7.79907C28.2539 7.79907 27.647 7.83316 27.647 8.47189Z" fill="white"/>
</svg>
